<svg xmlns="http://www.w3.org/2000/svg" xml:space="preserve" id="Capa_1" x="0" y="0" version="1.1" viewBox="0 0 300 300"><style>.st0{fill:#fafafa}</style><path d="M149.9 287.7c-76.3 0-138.1-62.4-137.7-138.4.4-74.6 61-137 137.8-137 75.9 0 137.8 61.4 137.8 137.8 0 77-62.9 137.8-137.9 137.6zm.1-271.6C76 16.2 16.9 76.2 16.1 148.6c-.7 74.1 59.4 135.2 133.8 135.2 73.1.1 134-59.2 134-133.8 0-74.3-60.5-133.9-133.9-133.9z" class="st0"/><path d="M277.6 150.1c0 70.8-58.1 128-128.6 127.5-69-.6-127-56.9-126.6-128.3.4-70.7 58.1-126.8 127.5-126.8 70.4-.1 127.7 57.1 127.7 127.6zm-3.9 0c0-68.2-55.3-123.6-123.5-123.8C82.8 26.2 27 80.7 26.3 148.7c-.7 68.5 54.6 124.9 123.7 124.9s123.7-56.2 123.7-123.5z" class="st0"/><path d="M154 240.4c-54 0-94.3-40.3-94.4-90 0-49.6 40.4-89.9 90.2-89.9 48.2 0 90.8 38.7 90.1 92.9-1.4 23.2-9.6 43.5-26 60.1-17.7 17.9-39.3 26.6-59.9 26.9zm-2.6-60.3c0 .4-.1.7-.1 1-.1 9.1-.2 18.1-.2 27.2 0 2.6 0 2.6 2.2 3.8 7.3 3.9 15.2 6.1 23.3 7.5.6.1 1.2 0 1.8-.2 4.2-1.3 8.3-2.9 12.2-5 5.9-3.2 11.1-7.2 15.3-12.5.4-.5.8-1 .9-1.5.4-1.5.7-3 1-4.6l-1.3-.6c-.1-.2-.1-.3-.2-.5-.3-1.6.4-3 1-4.3.2-.5.6-1 .5-1.5 0-1.5.2-2.8 1-4 .2-.3.2-.6.2-.9 0-4.2 0-8.3-.1-12.5 0-.3-.2-.7-.3-1-.8.8-1.4 1.5-.6 2.5.3.4.3 1.2.3 1.8 0 1-.3 2 .3 3 .2.3.1.7.1 1-.1 1.3-.3 2.6-.5 3.9-.2 1.4-.7 2.6-2.3 2.8-.3 0-.6.3-.9.6-.5.5-1 1-1.6 1.4-1.2.9-1.5 1.9-1.1 3.3.5 2.2-.2 3.3-2.3 4-.5.2-.8.3-.9.9-.3 1.9-1.2 3.5-2.6 4.8-.3.3-.6.6-.9 1.1-.9 1.8-2.5 2.5-4.4 2.9-1.3.3-2.6.7-3.9 1l-1.2.3-1.1-1.8c.2-.4.3-.9.5-1.4.3-1.2.1-2.4-.7-3.2-.7-.7-.8-1.3-.8-2.1 0-1.1.1-2.1.1-3.2.1-1.1.5-2.2-.4-3.2-.1-.1-.1-.3-.1-.4.4-.9-.3-1.5-.6-2.2-.3-.5-.7-1.2-.5-1.7.6-2 .7-4.1 1.9-5.9.7-1 .8-2.2.6-3.4-.1-.9-.3-1.8-.5-2.7-.4-1.8-.7-3.6-1.9-5-.6-.7-1-1.5-1.6-2.2-.5-.6-.5-1.2-.1-1.9.4-.9.8-1.7 1.1-2.7.2-.6.2-1.3-.5-1.8-9.4 7.1-19.6 13.4-30.1 19.1zm25.5-98.4c-.4-.5-.7-.9-1.1-1.3-1.3-1.3-2.7-2.6-4-3.9-.7-.7-1.6-1.1-2.5-1.3-11.4-2.5-23.1-2.8-34.6-1-.6.1-1.2.3-1.6.7-1.9 1.7-3.7 3.5-5.5 5.2-.2.2-.3.4-.4.6.7-.3 1.3-.6 2.1-.3.4.1.9 0 1.3-.1 1.5-.2 3.1-.8 4.5-.6 1.6.2 3.2.1 4.6-.4 1.7-.6 3.3-.1 4.9.3 1 .2 1.8.4 2.8 0 .5-.2 1-.3 1.5.3l-2.1.5c1.4.5 2.7-.4 3.9.4-.3.4-.5.8-.8 1.2.9.4.9.4 1.2 1.1l-.7.3.5 1.1-2.4 1.8c.2.4.4.7.7 1.2l-3.2-.2 1.1 1c-1.8.4-3.3 1.1-4.8 1-1.3 0-2.3.3-3.1 1.1-.8.7-1.8 1.2-2.8 1.5-.8.2-1.6.4-2.3.5-.3.4-.5 1-.8 1.2-.8.6-1.3 1.3-1.5 2.4-.1.7-.6.9-1.2.8-.7-.1-1.4-.2-2.1-.2-2.4 0-3.6-1.5-4.4-3.5-.1-.2-.1-.4-.2-.6-.4-1-.3-1.5.7-2.1.5-.3 1.1-.5 1.7-.8-.9-.7-1.8.7-2.7-.4l1.9-1c-1.5.2-1.9-1.3-2.8-2.1-.8 1.2-1.7 2.3-2.3 3.5-.4.9-1.3 1.6-1 2.7.1.2-.4.7-.7.9-.8.5-1.3 1.3-1.6 2.1.1.2.2.4.3.5 5.4 7.3 10.7 14.6 16.1 22 .6.8 1.2 1 2.1 1h24.5c.4 0 .9 0 1.5-.1-.1-.5 0-1-.2-1.4-.5-.6-.3-1 0-1.6.5-.9.6-1.8-.1-2.7-.1-.2-.2-.5-.1-.8.2-.5 1.5-1 2-.8 1.6.8 3.3.4 4.9.5.9-2.3 1-3.3-1.8-4.4-.6-.2-1.2-.5-1.3-1.5l2.5.3.5-1c1 .6 1.7 0 2.5-.5.7-.5 1.3-1.2 2.1-1.4 1-.3 1.5-.8 1.5-1.8l2.1-.3c-.3-.8-.8-1.4-.8-1.9 0-.7.6-1.1 1.3-1.2.8 1.1.8 1.5.4 2.5-.1.2.2.7.4.8.9.2 1.8.5 2.4-.2.7.2 1.3.5 1.8.4.9-.2 1.8-.5 2.4-1.1 1-1 1.9-2.2 2.7-3.4-1.1-1.2-3.1-1.8-1.9-3.9-.3-.4-.4-1.1-1.2-1.4.1 1-.5 1.4-1.3 1.7-.8.3-1.4 1-1.1 2 1.2.5 1.2.5 1.7 1.3-.3.4-.7.7-.9 1.1s0 .9 0 1.4l-3.9 1.4c-.7-.8.5-1 .6-1.8-.4-.5-.8-1.1-1.4-1.7-.7-.8-1.2-.8-1.9-.1-1.2 1-2.5.7-3.1-.7-.2-.5-.6-1-.8-1.5 0-.8.5-1.3 1.3-1.5.5-.2 1-.5 1.6-.6 1.1-.2 1.9-.9 2.5-1.8 1-1.5 2.4-2.5 4.3-2.5.2 0 .4-.1.9-.2-1.1-1.6-2-3.1-3.2-4.5-.8-.9-1.1-1.1-2-.3-.5.5-1.1.4-1.7.1-.2-1.1-.2-1.1 1.6-2zM121.8 156c.2.3.4.5.6.7 8 7.6 16.9 14 26.4 19.7.7.4 1.2.3 1.8 0 9.2-4.8 18-10.2 26.1-16.6.3-.3.6-.6.9-.8-.5-.5-.9-.9-1.3-1.2-.3-.2-.7-.7-1-.6-1.7.3-3.6 0-5 1.4-.3.3-.9.6-1.3.5-1 0-2-.3-3-.4-.4 0-.8 0-1.1.2-1.6.8-2.6.7-4-.5-.5-.5-1-1-1.6-1.4-1.1-.8-2-2-2.3-3.3-.5-1.8-1.9-2.7-3.3-3.6-.3-.1-.5-.3-.8-.4.2-.8.7-1.6.5-2.2-.2-1.3.2-2.4.5-3.5.2-.6.5-1.3.3-1.8-.7-1.3.2-3-.9-4.2-.1-.1 0-.4 0-.6.3-.8.4-1.7 1.2-2.4.5-.4.8-1.1.9-1.7.4-2 1.8-3.3 3.3-4.3 1.4-.9 2.4-1.8 2.3-3.6-.1-1.1.5-1.7 1.5-2.1.3-.2.7-.3 1-.5l-.1-.2h-29.6c-5.2 10.6-9.3 21.8-12 33.4zm-8.5-45.1c0 .6-.4 1.2-1 1.4-1.2.5-2.4 1-3.4 1.8 0 0-.2-.1-.3-.2l.3-.6c.1-.2.1-.4.2-.7-2.8.9-4.2 2-4.8 4.1-1.5.5-3.3 2.6-4.1 4-.5.9-1.4 1.7-1.3 2.9 0 .1-.2.3-.3.4-.7.6-1.3 1.3-2 1.8-2 1.6-2.9 3.6-2.3 6.1.1.3.2.6.2.9.1 1-.2 1.9-.9 2.6-1.7-1.4-.8-3.3-1.3-5-.6.2-1 .4-1.4-.2-.3-.4-2.3-.5-2.6-.3 0 .1-.1.1-.1.2.1.2.1.5.2.8-.4.5-.9.5-1.5.2-.7-.3-1.4-.3-2 .2l-1.5 1.5c-.2.2-.5.6-.5.9.3 1.6-.5 3-.8 4.4-.6 2.2.2 3.8 1.1 5.5 1.3 0 2.4-.1 2.7-1.6.2-1.4 1.5-1.7 2.7-2.4-.5 2.3-1.2 4.4-1.3 6.6h1.4c1.7-.2 2.3.3 2.3 2 0 1.1-.1 2.1-.1 3.2 0 1 .2 1.9 1.2 2.6.3-.2.7-.3 1-.5.9-.6.9-.6 1.7.3.3.3.6.6 1.1 1 .3-1 .5-1.7.8-2.3.2-.5.6-1.1 1-1.2 1-.2 1.5-.7 1.8-1.6.1-.3.6-.5.9-.6.4-.1.8.1.8.7 0 .1 0 .4.1.4.7.3 1.1 1 1.3 1.7 0 .2.5.4.6.3 1-.9 1.4.4 2 .6.4-.2 1-.8 1.3-.7 1 .4 2 1 2.8 1.6.6.5 1 1.1 1.5 1.7.2 0 .2.1.2.2.1 1.8.4 1.9 2 1.4 1.5-.5 3-1 4.5-1.4.9-.2 1.3-.7 1.5-1.6 2.5-10.8 6.5-21.1 11.3-31 .4-.7.7-1.4 1.1-2.2L119 104.3c-.5.3-.9.6-1.2.8-.4.3-1 .4-1.3.7-1.3 1.1-2.8 1.5-4.4 1.4-2.3-.2-3.5 1.3-5.3 2.5 1.6-.1 2.6-1.8 4.2-.9-.5 1.1-1.6 2.1 0 3.2l2.3-1.1zm34.1 100c.1-.7.1-1 .1-1.4.2-9.2.3-18.4.5-27.7 0-1.4-.5-2.1-1.6-2.8-7.1-4.3-13.9-9.1-20.2-14.5-1.9-1.6-3.7-3.3-5.5-5-.8-.8-1.5-1-2.4-.5-.3.2-.6.3-1 .4.1.4.1.7.2.9.5 1.4 1.4 2.7 1.5 4.3 0 .2.3.5.5.7.3.4.6.7 1 1.1.9-.8 1.5.3 2.2.4 1 .2 1.3.9 1.8 1.7.8-.6 1.6-1 2.5-.3.2.1.5.2.7.1.6-.1 1 .2 1.5.6.4.4.9.7 1.3 1.1.7.6 1.4 1.3 2.5 1.1.3 0 .7.3.9.6.8 1 .9 3.5.2 4.6-.9 1.4-1.8 2.9-2.8 4.3-.6.8-.7 1.6-.6 2.7.2 2.3 0 4.6-1.1 6.8-.1.3-.1.6-.2.9-.3 1-1 1.5-2 1.7-.9.2-1.8.6-2.7.9-1.4.5-1.7 1.7-1.7 3 0 .4.1.8 0 1.2-.3 1-.6 1.9-1 2.9l-.1.1-1-.2c-.8 1.9-.6 4.3-3.2 4.9l-1.5-1.1-.2.2c.5.7 1 1.5 1.4 2.1-.5 2.4-2.3 1.8-3.8 1.7-.2.7.7 1.5-.3 2.1l-1.4-.3c.4 1.2 1.1 2.1.9 3.3-.3.1-.5.2-.7.3-.3.2-.7.4-.7.6 0 .2.3.7.6.7.7.1 1 .6 1.3 1.1.2.3.6.7.9.9 1 .5 1.9.9 2.9 1.3.5.2 1 .2 1.5.2 6.8-.7 13.5-2.1 20-4.4 3-1 5.9-2.1 8.8-3.3zM120.5 222c0 .2 0 .3.1.5s.2.5.3.7c2 4.1 4.8 7.7 8.1 10.9.4.4 1 .7 1.6.8 11.1 2.5 22.3 2.7 33.5.9.5-.1 1-.3 1.4-.5 4.6-3 7.3-7.4 9.5-12.3-.2-.1-.3-.2-.4-.2l-1.8-.3c-8-1.3-15.6-3.7-22.5-7.9-.9-.5-1.6-.6-2.5-.1-7.2 3.2-14.7 5.5-22.5 6.9-1.5.1-3.1.3-4.8.6zM86 196.3c0-.2.1-.5.1-.7-.8-9.1-.6-18.3.8-27.3.1-.9-.1-1.6-.7-2.4-5.4-6.6-10.3-13.5-14.3-21.1-.1-.2-.2-.4-.4-.5-.3.1-.5.3-.8.5-.5.4-1 .9-1.5 1.3-3.5 3.7-4.9 8.3-5.7 13.2 0 .3 0 .6.1.9 1 9.4 3.6 18.3 7.6 26.8.5 1.2 1.3 2.2 2.2 3 3.6 3.2 8 4.8 12.6 6.3zm142.9-47.4c-.5.8-1 1.6-1.4 2.4-4 6.5-8.8 12.3-14.1 17.6-.7.7-1.1 1.5-1 2.5.3 3.7.5 7.4.7 11.1 0 .4-.1.9-.2 1.3-.1.5-.4 1-.4 1.6-.2 4.2-.7 8.5-1.5 12.7-.1.4 0 .8 0 1.3 4.7-.8 9.1-2 12.8-5.1 1-.9 1.8-1.9 2.4-3.1 4.5-8.3 7.5-17.1 9-26.5.5-2.9.4-5.9-.5-8.7-.4-1.1-.8-2.3-1.9-3.3-.3.9-.5 1.7-.7 2.5-.7-.4-.6-1-.7-1.6-.2-1.8-.3-3.7-2.5-4.7zM130 73c-.7-.4-1.2-.6-1.7-.9-3.1-1.5-6.5-1.8-9.9-1.8-1.1 0-2.1.2-3.1.7-9.5 4.3-18.2 10.1-25.8 17.2-2 1.9-2.4 4.4-2.8 7.1 1.4-.1 2.1-1 2.8-1.8 1.1-1.2 2.3-2.3 4.1-2.6.3-.1.6-.2.8-.5.6-.9 1.4-.9 2.4-.9 1.5.1 3 .3 4.4-.5.8-.4 1.8-.4 2.8-.7-.1.3-.1.5-.2.7-.1.2-.3.4-.5.6 1 .2 2.5.1 2.9-.1 1.4-.6 2.8-.9 4.3-.3.8.3 1.7.2 2.5.2.9-.1 1.8-.5 2.8-.7 1.4-.3 2.2-1.1 2.5-2.8-.6.2-1.2.5-1.8.5-.6 0-1.1-.4-2-.7 1.9-.9 3.5-1.6 5.1-2.3.7-.2 1.3-.7 1.8-1.2 1.7-2.1 3.5-4.1 5.3-6.1 1.1-1.1 2.1-2 3.3-3.1zm44.6 1.7c.4.3.8.5 1.1.8 3.6 3.4 6.8 7.2 9.2 11.6.9 1.6 2.5 2 3.9 2.7 1.3.6 2.9.8 4.3 1.3 1 .4 2.1.6 2.9 1.6-1.9.9-3.4-.6-5.1-.5 1.1.4 1.7 1.2 2.3 2.1.3.4.9.6 1.4.9.1.1.3 0 .5 0-.1-.3-.1-.5-.2-.7.4-.1 1.1 0 1.2-.2.4-1 1.4-.7 2-.9.3-.7.5-1.3.8-2.1l1 .9-1 .5c1.1.7 2-.2 2.9.1.9.3 1.8.4 2.8.6.1-.5.2-.9.3-1.4.8.7 1.3 1.7 2.5 1.3 0-.4-.1-.7-.2-1.2.4.1.7.1.8.3l2.1 2.4c.4.5.7.8 1.6.5l-1.7-1.7 1.9.2c.1-.6.3-.8 1.4-1.5 0-.1-.1-.2-.1-.3-.1-.2-.3-.3-.4-.5-6.6-7-14.3-12.9-22.9-17.4-1.6-.8-3.3-1.3-5.1-1.4-3.3-.2-6.7.2-10.2 2zm-68.4 138c-.2-.9-.4-1.5-.5-2.1-.3-1.3-.7-2.6-1-3.9 0-.3-.1-.6 0-.8 0-1.2.2-2.4.1-3.6-.1-1.3-.4-2.6-.6-3.9-.5-3.5-1-7.1-1.4-10.7-.1-.9-.6-1.6-1.3-2.2-1.1-.9-2.2-1.9-3.3-2.9-.3-.3-.5-.6-.7-1-1-2.1-1.9-4.3-2.9-6.5-.4-1-.9-1.9-1.5-2.8-.9-1.4-.9-2.3 0-3.7.1-.1 0-.2.1-.4l-.7-1.2c-2.1.4-2.1.4-2.4 2.3-.3 2.2-.5 4.4-.7 6.6-.5 6.9-.3 13.9.5 20.8.1.7.4 1.3.8 1.9 4 5.1 8.7 9.5 14.1 13.1.4.5.8.7 1.4 1zM220 200.6c-.1 0-.3 0-.4.1-2.9 1.1-5.9 1.8-9 2.3-.8.1-1.4.5-1.9 1.1-3.5 4.4-7.7 8-12.5 11-5 3.1-10.4 5.4-16 7.2-1 .3-1.6.7-2 1.8-1.2 3.2-3 6.2-5.1 8.9-.2.2-.3.5-.7 1 19.9-5.8 35.7-16.7 47.6-33.4zm-103.9 21.6c-.2 0-.7 0-1.2.1-1.2.1-2.3-.3-3.3-.9-1.2-.7-1.8-2.1-3.2-2.5-.1 0-.1-.2-.2-.2-.6-.5-1.1-1.1-1.7-1.4-7.2-4.2-13.3-9.5-18.5-16.1-.5-.6-1.2-1.1-2-1.3-2.9-.7-5.7-1.7-8.4-3-.2-.1-.5-.2-.9-.3 2.1 5 12.1 16.3 19.7 22.1 7.7 6 22.4 13.7 25.8 13.6l-6.1-10.1zM83.2 95.5c-12.8 15.1-19.1 32.7-19.9 52.3.2-.1.4-.2.6-.5 1.6-2.6 3.6-4.8 6.3-6.3.5-.3.7-.7.8-1.2.6-3 1.1-6 1.9-8.9.7-2.5 1-5.2 1.1-7.8 0-.5 0-1 .2-1.5.9-2 1.7-4 2.2-6.1.1-.5.3-.8.9-.8.7 0 .8-.5.6-1.1l-.7.5c-.5-.9-.4-.9-.1-1.6.4-.9.8-1.8.8-2.7 0-.6-.1-1.1.4-1.6.7-.8.5-1.7-.5-2.2-.2-.1-.4-.2-.9-.3 2-2.5 3.8-4.9 5.7-7.3.1-.2.5-.1.9-.2l-.3-2.7zm43.1-28.1c2.4.8 4.6 1.9 6.7 3.3.3.2.9.2 1.3.2 2.8-.3 5.6-.7 8.5-.9 9.2-.7 18.3-.1 27.3 2 .7.2 1.3.1 2-.2 1.9-.8 3.9-1.4 5.8-2.1.3-.1.7-.2 1.3-.5-17.6-6.1-35.1-6.7-52.9-1.8zm85.5 98 .3.3c.3-.4.5-.8.9-1.2 5-5.3 9.3-11.1 12.9-17.4.5-.9.7-1.7.6-2.7-.2-1.7-.2-3.3-.4-5-.2-1.3-.1-2.6-.8-3.8-1.7.1-3.3-.2-4.7-1-.5-.3-.7-1.1-1.3-1.4-.6-.3-1.4-.2-1.9-.5-.7-.5-1.1-1.3-1.7-1.9-.5-.7-.9-1.5-1.7-1.7-.5.6-.6 1.1-.2 1.7.6 1.1 1.1 2.3 1.7 3.4.1.2.2.3.3.4.6-.3.6.2.8.5.3 1 1 1.3 1.9 1.3l.8-1.5c.3 1.2 1 2 1.8 2.6 1 .7 1.2 1.8.9 2.8-.4 1.2-.4 2.7-1.6 3.6-.1.1-.2.3-.3.6-.9-.2-1.4.2-1.8 1.1-.4 1-1.1 1.7-2 2.2-1 .5-2 1-3.1 1.6l-1.1-.8c-.1-1.7-.5-3.5-1.2-5-.9-2-2.6-3.6-2.8-5.9 0-.2-.2-.4-.3-.5-.3-.6-.7-1.1-1-1.7-.9-1.7-1.9-3.3-2.8-5l-.2-.2-.5.6c-.4-.4-.8-.7-1.2-1-.1.2-.1.3-.1.3.7 1.3 1.4 2.7 2 4l2.4 4.8c.1.2.1.4.2.6.4 1.2.3 2.5 1.4 3.4.2.1.1.5.2.7.3 1.3.9 2.4 1.8 3.5s1.9 2.1 2 3.7c0 .8.7 1.3 1.5 1.7 1.4-.8 3.2-.6 4.5-1.8 0 1.2-.1 2.3-.4 3.3-.5 1.9-.5 4-1.9 5.7.1 1.7-1.2 2.3-2.3 3.1-.9.5-1.5 1.4-1.6 2.5zm-9.4-44.3c-.1 0-.4 0-.6.2-.8.6-1.6.5-2.3-.1-.3-.2-.7-.2-1.1-.3-.6-.1-1.4-.1-1.9-.4-.7-.5-1.1-1.2-1.6-1.9-.4-.6-.6-1.3-1-1.9-.5-.7-1.6-.9-2.2-.5-.5.3-.5.9.1 1.7.5.7.1 1.4-.1 2-.2.5-.6.5-1 .1.2-1.1-.5-1.9-1.2-2.7-.7-.7-1.2-1.6-1.5-2.5-.3-1-.8-1.6-1.8-1.8-.8-.1-1.5-.6-2-1.2-.7-.9-1.8-.9-3.1-1 .8 1.7 2 2.8 3.3 3.8.9.6 1.9 1 2.9 1.5v.4l-1.3.1c.5.8.4 1.5-.1 2.2-.4.5-.9 1.1-1.5 1.7-.2-1-1.9-.8-1.5-2.2.5 0 1 .1 1.4.1 1-.1 1.3-.9.7-1.6-.4-.4-.8-.8-1.3-1-1.6-.6-2.9-1.7-4.1-3-1 .3-.6 1.1-.7 1.5-.6.3-1.1.5-1.5.9-1.2 1.4-2.3 2.8-3.5 4.4.8.2 1.6.6 2.2.5 1-.3 1.9-.3 3-.2 1.4.1 1.4 0 1.8 1.4.1.5.2.9.1 1.4 0 .6.1 1 .6 1.3.5.3 1 .7 1.6.8 1.1.4 2.1.6 2.8 1.7.1.2.5.4.7.5.9.5 1.9.9 3.2 1.5.2-.3.7-.7.8-1.2.1-.5-.2-1-.3-1.6 1.1-.5 2.1-.9 3.2.2.3.3.8.5 1.2.6.8.3 1.7.4 2.5.7 1.1.4 2.1.6 2.9 0 .8.1 1.4.3 2 .3.6 0 1-.3 1-.9-.2-2 .7-3.9-.8-5.5zm-120.5 26c-.9-.7-1.9-1.5-2.8-2.2-1.2-.9-1.9-2-1.6-3.6.2-1.4.2-2.7-.6-3.9-.3-.5-.3-1.3-.4-1.9-.1-.6-.1-1.3-.9-1.8-.1.7-.1 1.3-.2 1.9-.3 1.5-.7 3.1-1.1 4.6-.3 1.1-.1 1.9.4 2.9 4 7.5 8.8 14.3 14.2 20.8.2.2.3.5.4.7 1.5-.5 2.7-.8 3.9-1.2.2-.1.5-.2.6-.4.5-1.1 1.1-2.1 1.3-3.2.3-2-.9-3.6-1.6-5.3-1.1.2-.7 1.1-.9 1.9-.7-.5-1.5-.9-2.1-1.5-.6-.6-1.2-1.2-1.6-2-.4-.7-.6-1.6-.8-2.4-.1-.5-.4-.9-1-1-1.2-.2-2.2-.8-2.8-2-.2-.5-.6-.9-1-1.3l-1.4.9zm118-37c.2.8.4 1.4.6 2.1-.7 0-1.4.1-2-.1-.2-.1-.2-.8-.3-1.1l-2-1.2c-.9 1.3-1.5 2.7-1.9 4.2-.2.8.8 1.4 1.7 1.8.8.3 1.5.9 2.4.4 1.2-.8 2.6-.9 3.7 0 1.1 1 2.3.7 3.5.6.3-1.3.3-1.4-.5-2-1.2-1-2.3-1.9-3.6-2.8.3-.7.6-1.4 1-2.3l-2.6.4zm14.8 7.8c-.6-.8-1.1-1.3-2.2-.8.2-1.5-1.4-2.1-1.3-3.6 1.1.6 1.8.5 2.3-.6-.8-1.6-2.4-2.4-3.4-3.5-.6.2-1 .4-1.4.5-.2.1-.6.2-.6.4-.2.7-.5 1.3-.5 2 0 .4.4.8.6 1.2 1 1.5 2 2.9 3.1 4.5l-1.4.3c.6 1 1.1 1.9 1.6 2.8.4.8 1.3.9 2 1.1.6.2 1.2.2 1.6-.3-.2-.9-.3-1.6-.5-2.4l-1.3-.6 1.4-1zM96.4 101.6c.9 1 1.6 1.9 2.4 2.7.8.9 1.9.9 3 0 .5-.4 1-.7 1.5-1 .8-.5 1.2-1.1.8-2-.3-.7-.1-1.1.3-1.5.2-.2.4-.4.8-1-3.1.7-6 1.6-8.8 2.8zM235.2 140l-.3-.1c-.4.6-.9 1.1-1 1.7-.5 1.6-.8 3.3-1.3 5-.2.6.1.9.5 1.3.8.8 1.6 1.6 2.4 2.3.2.2.4.3.7.6 0-1.9.1-3.7 0-5.4-.2-1.9-.6-3.6-1-5.4zm-65.1-21.5c1.4-1.4 4.1-4.9 4.5-6-.5 0-1.1-.1-1.3.1-.3.4-.3 1-.5 1.3-.6.4-1.1.8-1.7 1.1-.6.4-.9.9-.9 1.6 0 .7-.1 1.3-.1 1.9zm-56.2-20.6c-.7-.4-1.8-.4-3.3.1 0 .8-.4 1.7 1 2l2.3-2.1zm3.5 4.3-1.6-2.1c-.3 1.7-.1 1.8 1.6 2.1zm77.7 13.7-.2.4c.4.4.8.5 1.4.3l-1.2-.7zM153.8 248.9c1.5-.6 2.7-.6 3.9.7 2.4 2.6 5.1 5.1 7.6 7.6.3.3.7.6 1.2 1.1-.5-3.8-.9-7.3-1.3-10.9l3.2-.4c.7 5.7 1.4 11.2 2.1 16.9-.8.1-1.5.3-2.2.3-.4 0-.9-.3-1.3-.7-2.6-2.5-5.1-5-7.6-7.4-.4-.4-.8-.7-1.5-1.4.2 3.8.9 7.1 1.1 10.6-1 .1-2 .3-3.2.4-.7-5.7-1.3-11.2-2-16.8zM200.9 246.8l-4.4-9.7 2.7-1.3c.7.8 6.6 13.3 7.2 15.4-.7.3-1.3.7-2 .9-.4.1-1-.1-1.4-.3l-9.6-4.8c-.5-.3-1-.4-1.6-.5.7 1.6 1.4 3.2 2.1 4.7.7 1.6 1.4 3.1 2.2 4.8l-3 1.4L186 242c.7-.3 1.3-.8 2-.9.4-.1 1 .1 1.4.3 3.3 1.6 6.5 3.3 9.7 5 .5.3 1 .5 1.5.7l.3-.3zM111.4 260.4c-1.1-.4-2.1-.7-3-1.2-.3-.1-.5-.6-.5-1-.3-1.5-.7-3-.9-4.5-.1-.9-.6-1.4-1.4-1.7-.6-.2-1.1-.4-1.9-.7-.7 1.7-1.4 3.5-2.1 5.3l-3.1-1.2c2-5.3 3.9-10.6 5.9-15.9.4.1.7.2 1 .3 1.9.7 3.8 1.5 5.7 2.1 2.7.9 3.9 3.2 3.8 5.6-.1 2.6-1.7 4.5-4.2 5.3-.2.1-.4.1-.7.2.5 2.6.9 4.9 1.4 7.4zm-4.9-16.9-1.9 5.2c1.4.5 2.5 1 3.7 1.4 1.3.5 2.5-.2 3.1-1.6s.2-2.9-1.1-3.5c-1.1-.6-2.4-1-3.8-1.5zM142.8 51.2l1.4-2.6c1.7.6 3.3 1.3 5 1.8.7.2 1.6.2 2.4 0 1.1-.1 1.6-.7 1.7-1.5.1-.9-.2-1.5-1.2-1.9-.9-.4-1.9-.7-2.9-1l-2.7-.9c-4.2-1.6-3.3-6.8-.8-8.3 1-.6 2.1-1 3.2-1.2 2.7-.5 5.2.4 7.5 1.9-.6 1-1 1.8-1.4 2.5-1.5-.5-2.8-1.1-4.1-1.4-.7-.2-1.5 0-2.2.1-.8.1-1.3.7-1.4 1.6-.1.8.2 1.4 1.1 1.8.9.4 1.8.6 2.7.9 1.1.4 2.2.7 3.3 1.2 1.8.8 2.7 2.2 2.7 4.2s-.8 3.6-2.7 4.5c-.7.3-1.4.6-2.2.7-3.4.3-6.5-.4-9.4-2.4zM222.3 230.1l5.1 7c-.4.3-.7.6-1 .9-.3.2-.7.5-1.2.8l-.9-1.4c-.1.2-.2.5-.3.7-1 3.9-5.6 6.1-9.6 4.7-4.4-1.4-7-5.9-6.1-10.4.9-4.4 5.9-7.5 10-6.1.2.1.5.2.7.4 0 .2 0 .4-.1.6-.2.7-.4 1.3-.7 2.1-.3-.1-.6-.1-.9-.2-3.4-.8-6.4 1.7-6 5.2.3 2.6 1.8 4.5 4.3 5.4 3.2 1.1 6.2-1 6.6-4.7 0-.4-.3-.9-.6-1.4l-2.8 2-1.4-1.9c1.6-1.2 3.2-2.4 4.9-3.7zM127.7 246.7l3.3.6c1.1 5.9 2.1 11.8 3.2 17.9l-3.3-.6c-.2-1.5-.5-2.9-.7-4.4l-6.1-1.1-2.2 3.9-3.3-.6 9.1-15.7zm1.1 4.2-.3-.1-3.3 6.1 4.6.8c-.3-2.4-.7-4.6-1-6.8zM126.7 40.4c.2 1.6.5 3 .7 4.5l7-1c.1.9.3 1.8.4 2.7l-6.9 1.1c0 2.4.8 4.8.9 7.3l-3.3.6c-.9-5.9-1.8-11.8-2.7-17.8l11.9-1.8c.2 1.1.3 1.9.5 3l-8.5 1.4zM92.9 236.9 85.7 249l-2.8-1.6c2.4-4.1 4.8-8 7.2-12.2l-4.6-2.8 1.5-2.5 12.2 7.3-1.5 2.5-4.8-2.8zM167.6 54.9l-3.5-.5c.8-5.9 1.7-11.8 2.5-17.7l3.4.4c-.7 5.9-1.6 11.8-2.4 17.8zM178.9 244.1c1.6 5.5 3.1 10.9 4.7 16.4l-3.2.9c-1.6-5.5-3.1-10.9-4.7-16.4l3.2-.9zM143.2 248.6h3.2c-.2 5.7-.3 11.3-.5 16.9h-3c-.5-1.2-.1-14.1.3-16.9z" class="st0"/><path d="M165 101.3c-.2-.2-.4-.5-.7-.5-.9 0-1.3-.9-1.9-1.3-.2-.1-.2-.8 0-1.2.2-.4.6-.8 1-1.2h1.4c-.1.3-.1.6-.2 1l.8.2c.2 1.6 2.3 3.8 4.4 4.5.3.6-1.1 1.1.1 1.8l-6.3.9c.1-1.1 1.2-.6 1.6-1.3l-1.4-.3 1.4-2-.2-.6zM155.7 91.8c-1.4.5-2.5 1.1-3.7 1.4-1.5.3-3 .1-4.3-1.1l.7-.4-1.1-.6c.4-.5.9-.5 1.5-.3 1.4.6 2.8.7 4.2 0 .6-.3 1.2-.2 1.7.2.1.3.5.5 1 .8z" class="st0"/><path d="M158.8 101.7c.6-.4 1.1-.7 1.5-1.1.6-.5 1.3-.5 2.4.2 0 .7-.1 1.4-.1 2.1-1.2.1-2.1 1.3-3.6.8-.2-.5.6-1.3-.2-2zM165 101.2c-.1.6-.3.8-1.2.4l1.2-.4zM98 140.8c-1 .6-1 .6-2.9.5-.4-.6-.7-1.4-1.2-1.8-.5-.5-1.3-.7-2.1-1.1l-1.1.4c-.2-.4.3-.9 1.4-1.6 2.3.7 3.9 2.3 5.9 3.6zM120 108.4c-.6.5-.9.9-1.3 1.2-.2.2-.4.3-.7.3-.9-.1-1.8-.2-3-.4.8-1.3 1.9-2.4 3-3.4 0 .7-.1 1.3.6 1.5.5.3.9.5 1.4.8zM97.8 142.2l1.4.2c-.1-.5-.1-.8-.2-1.2 1.5-.1 2.9-.1 3.7 1.7-.9.2-1.8.4-2.7.5-.4 0-.8.1-1.2.1-.7 0-1.1-.3-1-1.3zM113 107.8c-.7.5-1.4.7-2.2 0h2.2zM94.1 143.4c.7-.6 1.1-.3 1.6.1-.6.6-1 .4-1.6-.1zM119.6 110.8c-.3-.8-.2-1.3.5-1.3.2 0 .4.1.5.2.1.8-.5.8-1 1.1zM103.8 142.4l1.2.8c-.2.2-.3.3-.5.3-.5 0-.9-.1-.7-1.1zM203.1 91.7c-1.5.3-1.5.3-3.5-1.3.1-.5.3-1.1.5-1.8 1.5-.3 2.9 0 4.4 0v.3c-.2.1-.5.1-.7.2-.5 0-.9 0-1.4.1-.3.1-.7.3-.8.5s.1.7.3.9c.3.4.7.6 1.2 1.1zM178.2 117.7c-.1-.6-.1-1.2-.1-1.8 0-.2.2-.5.4-.5s.5 0 .7.2c.8.8.4 1.7-1 2.1zM201.8 122.8l-1.5.5c.3-1 .8-1 1.5-.5zM100.9 103.6c-.6.5-1.2.7-1.9 0h1.9z" class="st0"/></svg>