<?xml version="1.0" encoding="utf-8"?>
<!-- Generator: Adobe Illustrator 25.0.0, SVG Export Plug-In . SVG Version: 6.00 Build 0)  -->
<svg version="1.1" id="Capa_1" xmlns="http://www.w3.org/2000/svg" xmlns:xlink="http://www.w3.org/1999/xlink" x="0px" y="0px"
	 viewBox="0 0 300 300" style="enable-background:new 0 0 300 300;" xml:space="preserve">
<style type="text/css">
	.st0{fill:#D35024;}
	.st1{fill:#EB612C;}
	.st2{fill:#FFFFFF;}
	.st3{fill:#222222;}
	.st4{fill:#FAFAFA;}
</style>
<g>
	<path class="st0" d="M81.2,85.1c-0.9,0.7-1.8,1.6-2.4,2.5c-6.3,9.8-5.7,13.2-21.7,17.9c0,0,35.5,16.8,46.1-8.7
		c-6.6-6.6-11.3-12-12.8-13.8C87.3,82.8,83.9,83.5,81.2,85.1"/>
	<path class="st1" d="M242.6,81.3c-4.4-7.8-29.5-48.6-69.3-46.9c-28.1,1.2-53.4,19.3-68.6,32.8c-3.9-3.8-9.1-6.8-14.8-6.4
		c-19.1,1.3-20.5,0.2-32.8-8c0,0,4.9,20,20.1,29.9c1.3,0.8,2.6,1.6,4,2.3c2.7-1.5,6.1-2.3,9.2-2.2c1.6,1.9,6.2,7.2,12.8,13.8
		c17.1,17,47.4,42.2,72.5,36.6c41.9-9.5,62.8-42.5,66.8-49.4C243,83.1,243,82.1,242.6,81.3z"/>
	<path class="st2" d="M178.9,77.5c0,10,8.2,18.2,18.2,18.2c10,0,18.2-8.2,18.2-18.2c0-10-8.2-18.2-18.2-18.2
		C187.1,59.3,178.9,67.5,178.9,77.5z"/>
	<path class="st3" d="M200.9,77c0,1.8,1.4,3.2,3.2,3.2c1.8,0,3.2-1.4,3.2-3.2s-1.4-3.2-3.2-3.2C202.4,73.8,200.9,75.3,200.9,77z"/>
</g>
<path class="st4" d="M60.2,234.3c-8.7,0-14.1-3.9-15.9-10.8H26.1c1.8,13.6,11.4,24.4,33.4,24.4s31.8-10.9,31.8-23.8
	c0-11.3-3.9-19.7-28.7-25.4c-12.9-3-15.6-5.2-15.6-9.7c0-4,2.6-7.8,10.8-7.8c10.6,0,13.1,5.9,13.9,9.4h17.6
	c-0.8-10.5-8.7-22.7-30.7-22.7s-29.8,11.5-29.8,22.6s4.2,18,28.1,23.9c12.2,3,15.5,5.4,15.5,11C72.5,231,69.1,234.3,60.2,234.3
	C60.2,234.3,60.2,234.3,60.2,234.3z M248.5,168.2c-13.8,0-20,7.1-22.8,12.5c-0.1-2.4-0.1-10.7-0.1-10.7h-18.4v4.9
	c0.1,4.6,0.1,9.6,0.1,14.4v57.2h18.5v-41.9c0-14.1,5.4-21.1,16.2-21.1c10.1,0,13.5,6.7,13.5,16.3v46.7h18.5v-48.8
	C273.9,178,263.5,168.2,248.5,168.2C248.5,168.2,248.5,168.2,248.5,168.2z M196.7,224.9v-79.6h-18.5V176c-1.8-3.7-7.8-8.1-19.6-8.1
	c-21.5,0-34.5,17.2-34.5,40.7s12.2,39.3,31.6,39.3c11.8,0,18.8-4.1,22.5-10.7l0.1,8.9h18.6C196.7,239,196.7,231.9,196.7,224.9
	C196.7,224.9,196.7,224.9,196.7,224.9z M160.8,232.9c-10.9,0-17.7-8.7-17.7-24.8c0-16.1,6.5-25.2,18.4-25.2
	c15,0,17.4,10.2,17.4,24.6C178.9,220.4,176.5,232.9,160.8,232.9C160.8,232.9,160.8,232.9,160.8,232.9z M98.4,174.8v71.3h18.5v-76.4
	H98.4C98.4,169.7,98.4,174.8,98.4,174.8z"/>
<path class="st1" d="M116.9,148.1v-2.8H98.4v21.2h0C108.6,166.5,116.9,158.2,116.9,148.1L116.9,148.1z"/>
</svg>
