<svg id="f598c84c-1294-4bb7-822a-47e190a3205e" data-name="Capa 1" xmlns="http://www.w3.org/2000/svg" xmlns:xlink="http://www.w3.org/1999/xlink" viewBox="0 0 128 128"><defs><style>.bd74fda9-bb5e-4015-9885-1d6dca30854e{fill:none;}.ed9961a3-620e-4e00-a385-c70bb4e40613{clip-path:url(#bdecc083-6ebd-40d1-81a9-2062a0887dcc);}.f7f4ef13-25c3-4555-8efa-f37efe7d19db{fill:#38bdf8;fill-rule:evenodd;}</style><clipPath id="bdecc083-6ebd-40d1-81a9-2062a0887dcc"><rect id="b8595360-be7f-460d-bcd0-b6ecfe819830" data-name="SVGID" class="bd74fda9-bb5e-4015-9885-1d6dca30854e" x="0.1" y="25.6" width="127.9" height="76.72"/></clipPath></defs><g class="ed9961a3-620e-4e00-a385-c70bb4e40613"><path class="f7f4ef13-25c3-4555-8efa-f37efe7d19db" d="M64,25.6c-17,0-27.7,8.6-32,25.6,6.4-8.5,13.9-11.7,22.4-9.6,4.9,1.2,8.3,4.8,12.2,8.7C72.9,56.6,80.1,64,96,64s27.7-8.5,31.9-25.6c-6.4,8.6-13.8,11.7-22.3,9.6-4.9-1.2-8.4-4.7-12.2-8.6C87.1,33,79.8,25.6,64,25.6ZM32,64C15,64,4.3,72.5.1,89.6,6.5,81,13.9,77.9,22.4,80c4.9,1.2,8.4,4.7,12.2,8.6C40.9,95,48.2,102.4,64,102.4s27.7-8.6,32-25.6c-6.4,8.5-13.9,11.7-22.4,9.6-4.9-1.2-8.3-4.8-12.2-8.7C55.1,71.4,47.9,64,32,64Z"/></g></svg>