<svg id="a873bf06-dfe6-4a76-a689-4b1397b74a0e" data-name="Capa 1" xmlns="http://www.w3.org/2000/svg" xmlns:xlink="http://www.w3.org/1999/xlink" viewBox="0 0 128 128"><defs><style>.b92c1667-d10e-48ff-9b0a-2c176993486c{fill:#fff;}.bbc451ba-dd16-45fd-9872-ac64dfe4161e{fill:url(#a691359e-702f-4277-a687-c5f0a4af7369);}</style><linearGradient id="a691359e-702f-4277-a687-c5f0a4af7369" x1="34.58" y1="14.08" x2="90.34" y2="40.42" gradientTransform="matrix(1, 0, 0, -1, 0, 130)" gradientUnits="userSpaceOnUse"><stop offset="0" stop-color="#d83333"/><stop offset="1" stop-color="#f041ff"/></linearGradient></defs><path class="b92c1667-d10e-48ff-9b0a-2c176993486c" d="M46.4,109c-5.8-5.3-7.5-16.4-5.1-24.4,4.2,5,10,6.6,15.9,7.5,9.3,1.4,18.4.9,27-3.3L87.1,87a15.6,15.6,0,0,1,.7,7.1,18.8,18.8,0,0,1-8.2,13.8c-1.8,1.4-3.8,2.6-5.7,3.9-5.9,4-7.5,8.6-5.3,15.4.1.1.1.3.3.7A15.3,15.3,0,0,1,62,122a15.7,15.7,0,0,1-2.6-8.9c-.1-1.6-.1-3.2-.3-4.7-.5-3.8-2.3-5.5-5.6-5.6a6.6,6.6,0,0,0-6.9,5.3,2.9,2.9,0,0,0-.2.9Z"/><path class="bbc451ba-dd16-45fd-9872-ac64dfe4161e" d="M46.4,109c-5.8-5.3-7.5-16.4-5.1-24.4,4.2,5,10,6.6,15.9,7.5,9.3,1.4,18.4.9,27-3.3L87.1,87a15.6,15.6,0,0,1,.7,7.1,18.8,18.8,0,0,1-8.2,13.8c-1.8,1.4-3.8,2.6-5.7,3.9-5.9,4-7.5,8.6-5.3,15.4.1.1.1.3.3.7A15.3,15.3,0,0,1,62,122a15.7,15.7,0,0,1-2.6-8.9c-.1-1.6-.1-3.2-.3-4.7-.5-3.8-2.3-5.5-5.6-5.6a6.6,6.6,0,0,0-6.9,5.3,2.9,2.9,0,0,0-.2.9Z"/><path class="b92c1667-d10e-48ff-9b0a-2c176993486c" d="M13.4,83.2s17.1-8.3,34.2-8.3l13-40c.5-2,1.9-3.3,3.5-3.3s3,1.3,3.5,3.3l12.9,40c20.3,0,34.2,8.3,34.2,8.3L85.6,3.9C84.8,1.6,83.4.1,81.5.1H46.6c-1.9,0-3.2,1.5-4.1,3.8Z"/></svg>