<svg id="b4e862b4-dbe5-4b80-9854-83f2f1201f21" data-name="Capa 1" xmlns="http://www.w3.org/2000/svg" viewBox="0 0 1000 1000"><defs><style>.bf6c6a87-54db-478a-9a58-03d360770396{fill:#fb2c36;}.ab001e6c-ba24-412e-80a0-a57f60b076b2{fill:#fff;}</style></defs><rect class="bf6c6a87-54db-478a-9a58-03d360770396" width="1000" height="1000" rx="103.6"/><path class="ab001e6c-ba24-412e-80a0-a57f60b076b2" d="M838.9,820.3c-4.5-10.1-9.2-20-14.1-29.8-9.7-19.6-20.1-38.5-30.8-57.1a1252.1,1252.1,0,0,0-69.7-106.1c-27.4-37.8-56.5-73.8-86.9-108.5a138.5,138.5,0,0,0,0-37.5c30.4-34.7,59.5-70.8,86.9-108.5A1253.8,1253.8,0,0,0,794,266.6c10.7-18.5,21.1-37.5,30.8-57,4.9-9.8,9.6-19.7,14.1-29.8,2.3-5.1,4.5-10.2,6.6-15.4s4.2-10.5,6.1-15.9q-8.1,2.9-15.9,6l-15.4,6.6c-10.2,4.5-20.1,9.3-29.9,14.1q-29.2,14.7-57,30.9a1269.1,1269.1,0,0,0-106.2,69.6c-37.7,27.4-73.7,56.4-108.4,86.9a129,129,0,0,0-18.8-1.3,142.9,142.9,0,0,0-18.6,1.2c-34.7-30.4-70.7-59.5-108.4-87a1254.7,1254.7,0,0,0-106.3-69.6c-18.5-10.7-37.5-21.1-57-30.8-9.8-4.8-19.8-9.5-29.9-14-5.1-2.3-10.2-4.5-15.5-6.6s-10.5-4.1-15.9-6c1.9,5.4,3.9,10.7,6.1,15.9s4.3,10.3,6.5,15.4c4.5,10.2,9.2,20.1,14.1,29.9q14.6,29.4,30.8,57.1A1252.9,1252.9,0,0,0,275.5,373q41.3,56.5,87.1,108.6a142.4,142.4,0,0,0,0,36.9q-45.7,52.1-87.1,108.6a1237.1,1237.1,0,0,0-69.6,106.2q-16.2,27.8-30.8,57.1c-4.9,9.8-9.6,19.7-14.1,29.9-2.2,5-4.4,10.2-6.5,15.4s-4.2,10.5-6.1,15.9c5.4-1.9,10.8-3.9,15.9-6s10.4-4.4,15.5-6.6c10.1-4.5,20.1-9.2,29.9-14q29.3-14.7,57-30.9A1253.8,1253.8,0,0,0,373,724.6c37.7-27.5,73.8-56.7,108.5-87.2a143.7,143.7,0,0,0,18.5,1.2,145.6,145.6,0,0,0,18.7-1.2q52,45.6,108.5,87c34,24.6,69.2,48,106.2,69.6q27.8,16.2,57,30.9c9.8,4.8,19.7,9.6,29.9,14.1l15.4,6.5c5.2,2.2,10.5,4.2,15.9,6.1-1.9-5.4-4-10.7-6.1-15.9S841.2,825.4,838.9,820.3ZM474.4,525.7a36.2,36.2,0,1,1,59.2-11.8,37.6,37.6,0,0,1-7.9,11.8,36.3,36.3,0,0,1-51.3,0Z"/></svg>