<svg id="a6e00af6-2fbf-461f-bc4c-39cc162cf23e" data-name="Capa 1" xmlns="http://www.w3.org/2000/svg" viewBox="0 0 128 128"><defs><style>.b4e59d83-78f4-4907-be6f-2614ef3df863{fill:#ffc200;}</style></defs><path class="b4e59d83-78f4-4907-be6f-2614ef3df863" d="M64.5,90.2,79,81.7l2.1,3.1c3,3.9,6.8,6.7,11.8,7.5s7.7.5,11.3-1.4c5.4-3,6.2-9.7,1.3-13.6A34.6,34.6,0,0,0,99,73.5c-4.7-2.2-9.4-4.2-14.1-6.5a27.1,27.1,0,0,1-10.2-8.2,23.6,23.6,0,0,1-4.9-13,25.5,25.5,0,0,1,1.9-12.2A22.1,22.1,0,0,1,85.6,21.1,33.2,33.2,0,0,1,110,22.3c5.2,2.4,8.7,6.6,11.5,11.5l-14,9c-.6-.9-1.1-1.8-1.7-2.6a11.1,11.1,0,0,0-12.7-4.6c-6.8,1.8-6.7,9.7-3.4,12.9A21.5,21.5,0,0,0,96,52.4c4.9,2.3,10,4.5,14.9,6.9a32.6,32.6,0,0,1,10.2,7.8A23,23,0,0,1,126.6,81a27.7,27.7,0,0,1-1.7,12.4c-2.8,6.5-7.8,10.6-14.3,13a41.3,41.3,0,0,1-17.4,2,36.8,36.8,0,0,1-16.4-4.9A30.9,30.9,0,0,1,64.9,91.1a2.1,2.1,0,0,1-.4-.6Z"/><path class="b4e59d83-78f4-4907-be6f-2614ef3df863" d="M1.3,92.1l14.5-8.8.6.9c1.3,1.8,2.4,3.7,3.8,5.3a9.2,9.2,0,0,0,7.7,3l2.1-.2c4-.8,6.1-3.2,6.6-7.5a31,31,0,0,0,.2-4.3V21.8c0-1.3,0-1.3,1.3-1.3H53.8c.9,0,1.1.3,1.1,1.1v60a33.5,33.5,0,0,1-2.2,12.6,20.6,20.6,0,0,1-12.6,12.4,33.6,33.6,0,0,1-25.5-.7C8.5,103.1,4.3,98.4,1.4,92.5,1.3,92.4,1.3,92.3,1.3,92.1Z"/></svg>